<svg version="1.1" xmlns="http://www.w3.org/2000/svg">
<symbol id="icon-instagram" viewBox="0 0 26 26">
  <path fill="#faffff" d="M13,0C9.47,0,9,0,7.64.08a9.52,9.52,0,0,0-3.16.6,6.37,6.37,0,0,0-2.3,1.5,6.41,6.41,0,0,0-1.5,2.3,10,10,0,0,0-.6,3.15C0,9,0,9.47,0,13s0,4,.08,5.36a9.52,9.52,0,0,0,.6,3.16,6.37,6.37,0,0,0,1.5,2.3,6.41,6.41,0,0,0,2.3,1.5,10,10,0,0,0,3.15.6C9,26,9.47,26,13,26s4,0,5.36-.08a9.52,9.52,0,0,0,3.16-.6,6.65,6.65,0,0,0,3.8-3.8,10,10,0,0,0,.6-3.15C26,17,26,16.53,26,13s0-4-.08-5.36a9.52,9.52,0,0,0-.6-3.16,6.5,6.5,0,0,0-1.5-2.3,6.41,6.41,0,0,0-2.3-1.5,10,10,0,0,0-3.15-.6C17,0,16.53,0,13,0Zm0,2.34c3.47,0,3.88,0,5.25.08a7.15,7.15,0,0,1,2.42.45,4.31,4.31,0,0,1,2.47,2.46,7.4,7.4,0,0,1,.44,2.42c.06,1.37.08,1.78.08,5.25s0,3.89-.08,5.25a7.37,7.37,0,0,1-.46,2.42,4.26,4.26,0,0,1-2.47,2.47,7.2,7.2,0,0,1-2.42.45c-1.38.06-1.79.07-5.27.07s-3.88,0-5.26-.08a7.36,7.36,0,0,1-2.42-.45,4.07,4.07,0,0,1-1.5-1,3.93,3.93,0,0,1-1-1.5,7.37,7.37,0,0,1-.46-2.42c-.05-1.36-.06-1.78-.06-5.25s0-3.88.06-5.26A7.37,7.37,0,0,1,2.81,5.3a3.83,3.83,0,0,1,1-1.5,3.71,3.71,0,0,1,1.49-1,7.06,7.06,0,0,1,2.41-.46c1.38-.05,1.78-.06,5.26-.06Zm0,4A6.68,6.68,0,1,0,19.67,13,6.68,6.68,0,0,0,13,6.32Zm0,11A4.33,4.33,0,1,1,17.33,13h0A4.33,4.33,0,0,1,13,17.33ZM21.5,6.06A1.56,1.56,0,1,1,19.94,4.5,1.56,1.56,0,0,1,21.5,6.06Z">
  </path>
  </symbol>
</svg>



