<svg version="1.1" xmlns="http://www.w3.org/2000/svg">
<symbol id="icon-twitter" viewBox="0 0 26 26">
<path fill="#faffff" d="M24.23,6.48c0,.28,0,.57,0,.85C24.24,16,18.67,26,8.5,26A13.94,13.94,0,0,1,0,23.05a8.54,8.54,0,0,0,1.34.08,10,10,0,0,0,6.87-2.8A5.75,5.75,0,0,1,3,15.78a5.33,5.33,0,0,0,1.05.1,5.1,5.1,0,0,0,1.45-.22C3,15.05,1.1,12.41,1.1,9.22V9.14A5.06,5.06,0,0,0,3.6,10,7,7,0,0,1,1.13,4.51a7.5,7.5,0,0,1,.75-3.32A15.08,15.08,0,0,0,13.3,8.06a8.37,8.37,0,0,1-.14-1.5C13.16,2.94,15.62,0,18.69,0a5.17,5.17,0,0,1,4,2.07A9.94,9.94,0,0,0,26.25.49,6.42,6.42,0,0,1,23.81,4.1a9.69,9.69,0,0,0,3.19-1A13.37,13.37,0,0,1,24.23,6.48Z"/>
</symbol>
</svg>