<svg version="1.1" xmlns="http://www.w3.org/2000/svg">
<symbol id="icon-history" viewBox="0 0 24 24">
  <path fill="#00909e" d="M24,12A12,12,0,0,1,4.47,21.34a1.15,1.15,0,0,1-.17-1.63l.08-.09.54-.55A1.18,1.18,0,0,1,6.47,19,8.9,8.9,0,1,0,5.9,5.51L8.36,8a.77.77,0,0,1,0,1.09.78.78,0,0,1-.55.23h-7A.78.78,0,0,1,0,8.52H0v-7A.77.77,0,0,1,.78.71a.74.74,0,0,1,.54.23L3.71,3.32A12,12,0,0,1,24,12Zm-8.75,3.81.47-.61a1.16,1.16,0,0,0-.2-1.63h0l-2-1.53V7a1.16,1.16,0,0,0-1.16-1.16h-.78A1.15,1.15,0,0,0,10.45,7h0v6.56L13.62,16a1.15,1.15,0,0,0,1.63-.2Z">
  </path>
  </symbol>
</svg>




