<svg version="1.1" xmlns="http://www.w3.org/2000/svg">
<symbol id="icon-pinterest" viewBox="0 0 26 26">
<path fill="#faffff" d="M26,2.79V23.21A2.79,2.79,0,0,1,23.21,26H9a14.52,14.52,0,0,0,1.59-3.44c.18-.67.89-3.39.89-3.39a3.82,3.82,0,0,0,3.27,1.64c4.3,0,7.39-4,7.39-8.87,0-4.7-3.84-8.23-8.79-8.23-6.15,0-9.41,4.13-9.41,8.63C3.9,14.43,5,17,6.79,17.86c.27.13.41.07.48-.19s.29-1.17.39-1.62a.42.42,0,0,0-.1-.4A5.54,5.54,0,0,1,6.5,12.4a6.18,6.18,0,0,1,6.15-6.2h.29a5.63,5.63,0,0,1,5.94,5.29,4.34,4.34,0,0,1,0,.51c0,3.85-1.94,6.52-4.48,6.52a2.06,2.06,0,0,1-2.17-2A2.11,2.11,0,0,1,12.3,16c.4-1.69,1.18-3.52,1.18-4.75,0-3.07-4.38-2.65-4.38,1.45a5.15,5.15,0,0,0,.42,2.12C7.7,22.48,7.42,22.58,7.8,26l.13.05H2.79A2.79,2.79,0,0,1,0,23.21V2.79A2.79,2.79,0,0,1,2.79,0H23.21A2.79,2.79,0,0,1,26,2.79Z"/>
</symbol>
</svg>