<svg version="1.1" xmlns="http://www.w3.org/2000/svg">
<symbol id="icon-dropdown-menu" viewBox="0 0 26 26">
  <path fill="#00909e"  d="M6.62,8.71a1.66,1.66,0,0,0,0,1.84L11.37,17a.78.78,0,0,0,1.08.27.87.87,0,0,0,.24-.23l4.67-6.34a1.65,1.65,0,0,0,0-1.84.79.79,0,0,0-1.09-.27.75.75,0,0,0-.26.27l-4,5.38L8,8.7a.79.79,0,0,0-1.09-.26A.87.87,0,0,0,6.62,8.71Z">
  </path>
  <path fill="#00909e" d="M0,12A12,12,0,1,0,12,0,12,12,0,0,0,0,12ZM19.18,4.82A10.15,10.15,0,0,1,5,19.38l-.21-.2A10.16,10.16,0,1,1,19,4.62,1.89,1.89,0,0,0,19.18,4.82Z">
  </path>
  </symbol>
</svg>


