<svg version="1.1" xmlns="http://www.w3.org/2000/svg">
<symbol id="icon-bicycle" viewBox="0 0 31.5 27">
<defs><style>.a{fill:#00909e;}</style></defs>
<path fill="#00909e" d="M6.57,15.84A4.63,4.63,0,1,1,3.33,17.2a4.53,4.53,0,0,1,3.24-1.36m0-2a6.57,6.57,0,1,0,6.56,6.57h0A6.59,6.59,0,0,0,6.57,13.87Z"/>
<path fill="#00909e" d="M20.24,4.49a2.24,2.24,0,0,0,2.25-2.23v0A2.21,2.21,0,0,0,20.3,0h0a2.25,2.25,0,0,0,0,4.49Z"/>
<path fill="#00909e"  d="M25,15.84a4.63,4.63,0,1,1-3.24,1.36A4.53,4.53,0,0,1,25,15.84m0-2a6.56,6.56,0,1,0,6.56,6.56A6.56,6.56,0,0,0,25,13.87Z"/>
<path fill="#00909e" d="M23.63,9H20.26L18.18,4.77a2.19,2.19,0,0,0-3-.83,2.52,2.52,0,0,0-.49.37l-5,4.86A2.31,2.31,0,0,0,9,10.74a2.12,2.12,0,0,0,1.3,1.91c3.2,1.84,4.33,2,4.33,3v4.63a1.13,1.13,0,1,0,2.25,0V13.92c0-.93-2.14-1.68-3.4-2.67l3.44-3.62c1.31,2,1.92,3.62,2.67,3.62h4a1.13,1.13,0,1,0,0-2.25Z"/>
  </symbol>
</svg>
