<!-- Generated by IcoMoon.io -->
<svg version="1.1" xmlns="http://www.w3.org/2000/svg" >
<symbol id="icon-compass" viewBox="0 0 26 26">
<title>compass</title>
<path fill="#00909e" d="M12.375 21.75v0c-5.178 0-9.375-4.197-9.375-9.375s4.197-9.375 9.375-9.375c5.178 0 9.375 4.197 9.375 9.375s-4.197 9.375-9.375 9.375zM12.375 21c4.763 0 8.625-3.862 8.625-8.625s-3.862-8.625-8.625-8.625c-4.763 0-8.625 3.862-8.625 8.625s3.862 8.625 8.625 8.625v0zM12.375 20.25c4.349 0 7.875-3.526 7.875-7.875s-3.526-7.875-7.875-7.875c-4.349 0-7.875 3.526-7.875 7.875s3.526 7.875 7.875 7.875v0zM13.701 13.701c-1.326 1.326-6.364 3.712-6.364 3.712s2.386-5.038 3.712-6.364c1.326-1.326 6.364-3.712 6.364-3.712s-2.386 5.038-3.712 6.364v0zM11.58 13.17c0.439 0.439 1.152 0.439 1.591 0s0.439-1.152 0-1.591c-0.439-0.439-1.152-0.439-1.591 0s-0.439 1.152 0 1.591v0zM12.375 5.25v0c0.201 0 0.375 0.165 0.375 0.368v2.264c0 0.207-0.168 0.368-0.375 0.368-0.201 0-0.375-0.165-0.375-0.368v-2.264c0-0.207 0.168-0.368 0.375-0.368zM19.533 12.408v0c0 0.201-0.165 0.375-0.368 0.375h-2.264c-0.207 0-0.368-0.168-0.368-0.375 0-0.201 0.165-0.375 0.368-0.375h2.264c0.207 0 0.368 0.168 0.368 0.375zM12.375 19.565v0c-0.201 0-0.375-0.165-0.375-0.368v-2.264c0-0.207 0.168-0.368 0.375-0.368 0.201 0 0.375 0.165 0.375 0.368v2.264c0 0.207-0.168 0.368-0.375 0.368zM5.217 12.408v0c0-0.201 0.165-0.375 0.368-0.375h2.264c0.207 0 0.368 0.168 0.368 0.375 0 0.201-0.165 0.375-0.368 0.375h-2.264c-0.207 0-0.368-0.168-0.368-0.375z">
</path>
</symbol>
</svg>