<svg version="1.1" xmlns="http://www.w3.org/2000/svg">
<symbol id="icon-nature" viewBox="0 0 18 22.442">
  <path fill="#00909e" d="M15.38,6.09a.62.62,0,0,1-.29-.53,6.13,6.13,0,0,0-12.2,0,.6.6,0,0,1-.29.53A6.14,6.14,0,0,0,4.55,17a1.7,1.7,0,0,0,1.07.05A2.81,2.81,0,0,0,6.15,15a2,2,0,0,0-1-.48A3.61,3.61,0,0,1,3.49,8.63a3.57,3.57,0,0,1,.88-.71A2.08,2.08,0,0,0,5.44,6.09,3.66,3.66,0,0,1,5.62,5a3.61,3.61,0,0,1,6.86,0,3.15,3.15,0,0,1,.18,1.13,2,2,0,0,0,1.07,1.82,2.51,2.51,0,0,1,.88.7,3.49,3.49,0,0,1,1,2.43A3.59,3.59,0,0,1,12,14.65h0a4.15,4.15,0,0,0-4.14,4.13v2.36A2.2,2.2,0,0,0,8,22.21a2.72,2.72,0,0,0,2.13,0,2.18,2.18,0,0,0,.18-1.07V18.73a1.6,1.6,0,0,1,1.6-1.6h0A6.08,6.08,0,0,0,15.4,6.06l0,0Z">
  </path>
  </symbol>
</svg>
